<svg viewBox="0 0 174 77" xmlns="http://www.w3.org/2000/svg" xmlns:xlink="http://www.w3.org/1999/xlink" preserveAspectRatio="xMinYMin meet"><defs><path id="path-1" d="M165.513 68V.3H.03V68h165.483z"/><path id="path-3" d="M0 76.077h173.513V0H0z"/></defs><g id="Page-1" fill="none" fill-rule="evenodd"><path d="M89.624 72.567c-23.147 0-44.36-6.895-54.04-17.565l-.596-.66H11.54v-24.07h24.102l.592-.62C46.35 19.044 67.696 12.07 90.62 11.89l.963-.004c23.288 0 44.554 6.955 54.176 17.718l.596.67h23.648v24.07h-24.587l-.592.61C134.5 65.633 113.718 72.38 90.59 72.565l-.966.003z" id="Fill-1" fill="#134B8D"/><path d="M91.583 9.88c-.326 0-.65.002-.978.005-24.454.195-45.607 7.67-55.822 18.383H9.535V56.35H34.1c9.8 10.805 30.93 18.224 55.525 18.224.326 0 .652 0 .98-.004 24.328-.194 45.387-7.595 55.66-18.22h25.743V28.268h-24.756C137.516 17.375 116.3 9.88 91.584 9.88m0 0v4.013c22.742 0 43.42 6.692 52.68 17.05l1.195 1.337h22.538v20.058h-23.431l-1.183 1.223c-9.812 10.15-30.542 16.82-52.81 16.998a99.79 99.79 0 0 1-.947.004c-22.608 0-43.237-6.636-52.556-16.908l-1.194-1.316H13.545V32.28H36.5l1.186-1.243c9.758-10.234 30.543-16.962 52.95-17.14.317-.003.632-.004.947-.004V9.88" id="Fill-3" fill="#FFF"/><g id="Group-7" transform="translate(8 8.077)"><mask id="mask-2" fill="#fff"><use xlink:href="#path-1"/></mask><path d="M3.04 46.768h23.726l.447.494c9.808 10.812 31.104 17.73 54.434 17.73.316 0 .628 0 .946-.003 23.26-.187 44.177-6.993 54.593-17.763l.444-.46h24.875v-25.07H138.58l-.447-.5C128.25 10.14 106.488 3.134 82.616 3.31c-23.053.184-44.54 7.217-54.744 17.917l-.445.465H3.04v25.073zM81.656 68c-23.8 0-45.675-7.092-56.215-18.222H.03V18.686h26.117C37.193 7.523 58.73.494 82.593.304c24.334-.184 46.696 7.003 57.324 18.382h25.597v31.092h-26.617c-11.094 11.064-32.57 18.03-56.28 18.22l-.96.002z" id="Fill-5" fill="#FDD41B" mask="url(#mask-2)"/></g><path id="Fill-8" fill="#FFF" d="M19.29 35.258h6.234l2.03 8.363h.04l2.03-8.362h6.234v14.218h-4.142v-9.12h-.04l-2.468 9.12h-3.266l-2.47-9.12h-.04v9.12h-4.14z"/><path d="M42.923 47.07c.837 0 2.12-.553 2.12-2.928s-1.283-2.927-2.12-2.927c-.836 0-2.12.552-2.12 2.927s1.284 2.928 2.12 2.928m0-8.515c3.242 0 5.408 2.33 5.408 5.587 0 3.257-2.165 5.587-5.407 5.587-3.24 0-5.407-2.33-5.407-5.588 0-3.257 2.166-5.587 5.407-5.587" id="Fill-10" fill="#FFF"/><path d="M53.006 43.47h1.718c.613 0 1.45-.103 1.45-1.06 0-.672-.374-1.06-1.63-1.06h-1.538v2.12zm-3.286-4.66h6.26c1.866 0 3.48 1.03 3.48 3.048 0 1.105-.51 2.27-1.6 2.674.898.343 1.45 1.33 1.57 2.66.045.52.06 1.79.358 2.284h-3.286c-.165-.538-.225-1.09-.27-1.644-.088-1.015-.178-2.076-1.478-2.076h-1.748v3.72H49.72V38.81z" id="Fill-12" fill="#FFF"/><path d="M64.076 43.47h1.72c.61 0 1.447-.103 1.447-1.06 0-.672-.372-1.06-1.627-1.06h-1.54v2.12zm-3.285-4.66h6.26c1.867 0 3.48 1.03 3.48 3.048 0 1.105-.508 2.27-1.6 2.674.898.343 1.45 1.33 1.57 2.66.046.52.06 1.79.36 2.284h-3.287c-.165-.538-.225-1.09-.27-1.644-.088-1.015-.178-2.076-1.478-2.076h-1.75v3.72h-3.285V38.81z" id="Fill-14" fill="#FFF"/><mask id="mask-4" fill="#fff"><use xlink:href="#path-3"/></mask><path id="Fill-16" fill="#FFF" mask="url(#mask-4)" d="M71.86 49.475h3.286V38.81H71.86z"/><path d="M79.448 45.89c0 .27.045.51.12.703.238.642.955.777 1.567.777.54 0 1.36-.18 1.36-.97 0-.554-.463-.703-2.3-1.227-1.688-.477-3.615-.94-3.615-3.092 0-2.463 2.106-3.524 4.302-3.524 2.315 0 4.362.88 4.452 3.48h-3.108c.06-.403-.12-.67-.388-.85-.27-.195-.642-.27-.97-.27-.45 0-1.18.12-1.18.717.06.762 1.582.927 3.09 1.345 1.51.418 3.004 1.12 3.004 3.077 0 2.778-2.555 3.675-4.93 3.675-1.21 0-4.66-.434-4.69-3.84h3.286z" id="Fill-18" fill="#FFF" mask="url(#mask-4)"/><path id="Fill-19" fill="#FFF" mask="url(#mask-4)" d="M86.648 46.712h4.676v-2.45h-4.676z"/><path d="M103.078 44.358c0 3.923-1.772 5.456-5.337 5.456-3.603 0-5.216-2.012-5.216-5.118v-1.194h3.943v.816c0 1.095 0 2.11 1.174 2.11 1.136 0 1.057-1.374 1.057-2.01v-9.16h4.38v9.1z" id="Fill-20" fill="#FFF" mask="url(#mask-4)"/><path id="Fill-21" fill="#FFF" mask="url(#mask-4)" d="M105.048 38.81h8.828v2.732h-5.542v1.33h5.034v2.54h-5.034v1.33h5.707v2.733h-8.992z"/><path id="Fill-22" fill="#FFF" mask="url(#mask-4)" d="M115.58 38.81h3.36l3.108 5.706h.03V38.81h3.106v10.665h-3.196l-3.27-5.825h-.032v5.825h-3.107z"/><path id="Fill-23" fill="#FFF" mask="url(#mask-4)" d="M126.993 38.81h3.286v3.674h.03l2.927-3.675h4.048l-3.87 4.167 4.498 6.498h-4.094l-2.63-4.153-.91 1.002v3.15h-3.287z"/><path id="Fill-24" fill="#FFF" mask="url(#mask-4)" d="M138.525 49.475h3.286V38.81h-3.285z"/><path id="Fill-25" fill="#FFF" mask="url(#mask-4)" d="M143.513 38.81h3.362l3.107 5.706h.03V38.81h3.107v10.665h-3.197l-3.272-5.825h-.03v5.825h-3.107z"/><path d="M157.452 45.89c0 .27.045.51.12.703.238.642.955.777 1.567.777.538 0 1.36-.18 1.36-.97 0-.554-.464-.703-2.3-1.227-1.69-.477-3.616-.94-3.616-3.092 0-2.463 2.106-3.524 4.302-3.524 2.315 0 4.362.88 4.452 3.48h-3.108c.06-.403-.12-.67-.388-.85-.27-.195-.642-.27-.97-.27-.45 0-1.18.12-1.18.717.06.762 1.582.927 3.09 1.345 1.51.418 3.004 1.12 3.004 3.077 0 2.778-2.555 3.675-4.93 3.675-1.21 0-4.66-.434-4.69-3.84h3.286z" id="Fill-26" fill="#FFF" mask="url(#mask-4)"/><path d="M60.474 25.78l-1.037-1.29c-.255-.32-.51-.69-.733-1l-.017.006c.045.38.108.834.147 1.226l.107 1.65 1.534-.592zm-1.393 1.484l.14 1.892-1.126.435-.39-6.713 1.393-.538 4.245 5.227-1.18.454-1.193-1.483-1.89.727z" id="Fill-27" fill="#FFF" mask="url(#mask-4)"/><path d="M64.01 27.417l-1.368-4.42 1.117-.347 1.366 4.422-1.116.345zm-.56-6.024c.1.326-.06.675-.45.796-.373.113-.702-.083-.803-.41-.107-.345.066-.687.438-.802.382-.118.7.072.814.415z" id="Fill-28" fill="#FFF" mask="url(#mask-4)"/><path d="M65.468 23.703a21.487 21.487 0 0 0-.418-1.433l.974-.257.27.834.027-.008c.056-.684.495-1.144.982-1.272.11-.03.177-.037.273-.043l.28 1.055a2.07 2.07 0 0 0-.348.063c-.532.14-.82.58-.784 1.122.008.106.03.227.06.347l.616 2.323-1.13.3-.802-3.032z" id="Fill-29" fill="#FFF" mask="url(#mask-4)"/><path d="M75.883 24.475c-.247.18-.818.438-1.586.577-2.002.362-3.444-.67-3.793-2.598-.376-2.076.847-3.593 2.774-3.94.757-.138 1.32-.076 1.575.003l-.077.96a3.19 3.19 0 0 0-1.28-.02c-1.28.233-2.06 1.206-1.787 2.72.252 1.395 1.216 2.128 2.61 1.876.458-.083.927-.265 1.212-.45l.35.872z" id="Fill-30" fill="#FFF" mask="url(#mask-4)"/><path d="M77.234 22.156c.108.887.635 1.502 1.332 1.417.66-.082 1.043-.78.93-1.714-.09-.718-.512-1.508-1.304-1.41-.82.1-1.052.942-.958 1.706m3.455-.473c.206 1.69-.89 2.59-2.06 2.733-1.29.16-2.41-.603-2.59-2.084-.186-1.51.69-2.555 2.077-2.726 1.367-.168 2.4.682 2.572 2.077" id="Fill-31" fill="#FFF" mask="url(#mask-4)"/><path d="M81.622 20.704c-.037-.53-.087-.974-.134-1.37l1.015-.07.104.687.03-.002c.182-.373.654-.845 1.422-.898.805-.056 1.675.41 1.775 1.867l.19 2.74-1.165.08-.18-2.605c-.047-.665-.328-1.15-.963-1.106-.464.032-.764.387-.863.745-.03.1-.04.242-.03.375l.188 2.72-1.166.082-.224-3.242z" id="Fill-32" fill="#FFF" mask="url(#mask-4)"/><path d="M90.235 20.846c0-.095-.014-.218-.034-.312-.112-.444-.49-.807-1.02-.797-.75.014-1.155.687-1.14 1.54.017.855.447 1.464 1.187 1.45.475-.01.886-.34.99-.846.027-.103.035-.218.032-.34l-.015-.694zm1.09-4.065l.104 5.44c.01.474.037.986.063 1.3l-1.034.02-.073-.73h-.02c-.264.518-.818.85-1.483.864-1.11.02-2-.902-2.028-2.326-.04-1.547.91-2.485 2.02-2.507.637-.012 1.097.235 1.313.573h.018l-.05-2.61 1.167-.022z" id="Fill-33" fill="#FFF" mask="url(#mask-4)"/><path d="M93.995 17.66c-.007.34-.268.62-.676.613a.62.62 0 0 1-.636-.637c.007-.36.278-.63.667-.624.4.006.64.287.645.647zm-1.35 5.89l.083-4.622 1.168.02-.082 4.623-1.168-.02z" id="Fill-34" fill="#FFF" mask="url(#mask-4)"/><path d="M96.647 17.856l-.054 1.187 1.11.05-.038.872-1.11-.05-.093 2.04c-.026.57.114.862.56.882.208.01.322.006.457-.026l-.02.884c-.175.06-.49.102-.852.085-.437-.02-.78-.178-.988-.425-.245-.278-.34-.71-.313-1.318l.1-2.173-.656-.03.04-.874.655.03.04-.863 1.162-.27z" id="Fill-35" fill="#FFF" mask="url(#mask-4)"/><path d="M99.992 17.956c-.025.343-.302.608-.71.58a.622.622 0 0 1-.598-.675c.026-.357.31-.613.7-.585.398.03.625.322.608.68v.002zm-1.67 5.814l.335-4.614 1.165.084-.334 4.616-1.166-.086z" id="Fill-36" fill="#FFF" mask="url(#mask-4)"/><path d="M101.858 21.742c-.1.89.27 1.61.97 1.687.66.072 1.194-.52 1.3-1.454.08-.717-.15-1.585-.943-1.673-.822-.09-1.242.674-1.327 1.44m3.472.34c-.19 1.69-1.463 2.313-2.634 2.182-1.294-.145-2.206-1.145-2.04-2.628.168-1.51 1.263-2.327 2.65-2.17 1.37.15 2.18 1.216 2.024 2.615" id="Fill-37" fill="#FFF" mask="url(#mask-4)"/><path d="M106.477 21.344c.09-.524.146-.968.195-1.364l1.002.17-.06.694.028.005c.267-.32.837-.668 1.596-.538.797.136 1.533.793 1.286 2.235l-.463 2.71-1.15-.2.44-2.575c.11-.657-.047-1.195-.675-1.302-.46-.078-.834.195-1.014.52a1.142 1.142 0 0 0-.12.357l-.46 2.69-1.15-.198.547-3.206z" id="Fill-38" fill="#FFF" mask="url(#mask-4)"/><path d="M113.667 19.993c-.073.334-.384.558-.783.47a.62.62 0 0 1-.497-.75c.077-.353.395-.565.776-.482.39.086.572.41.504.763zm-2.48 5.514l.99-4.518 1.14.248-.988 4.52-1.142-.25z" id="Fill-39" fill="#FFF" mask="url(#mask-4)"/><path d="M114.337 22.866c.142-.513.24-.95.33-1.338l.98.27-.13.683.027.01c.297-.294.898-.582 1.64-.378.778.213 1.445.94 1.057 2.35l-.726 2.645-1.126-.31.692-2.517c.176-.64.07-1.19-.542-1.36-.448-.123-.847.11-1.06.417a1.081 1.081 0 0 0-.153.342l-.722 2.626-1.126-.31.86-3.13z" id="Fill-40" fill="#FFF" mask="url(#mask-4)"/><path d="M122.39 25.91c.04-.107.068-.21.075-.308.033-.443-.165-.862-.627-1.035-.614-.23-1.267.134-1.596 1.015-.277.738-.125 1.474.56 1.73a.994.994 0 0 0 1.14-.335c.074-.092.14-.24.186-.365l.263-.703zm.36 2.374c-.34.907-.77 1.487-1.376 1.727-.594.235-1.273.123-1.87-.1-.55-.206-1.09-.55-1.382-.912l.55-.737c.216.263.615.605 1.14.8.712.268 1.386.094 1.735-.84l.14-.374-.02-.006c-.39.29-.922.383-1.5.168-1.078-.403-1.51-1.578-1.05-2.806.532-1.424 1.78-1.94 2.82-1.55.668.248.93.71 1.002 1.144l.016.007.26-.562.953.357c-.13.287-.28.636-.503 1.232l-.918 2.454z" id="Fill-41" fill="#FFF" mask="url(#mask-4)"/><path id="Fill-42" fill="#FFF" mask="url(#mask-4)" d="M54.37 53.604l-.993 2.364 2.496 1.048.993-2.364 1.077.452-2.478 5.903-1.077-.452 1.09-2.6-2.495-1.05-1.092 2.602-1.076-.453 2.48-5.903z"/><path d="M60.596 59.76c.142-.402.178-1.13-.563-1.37-.688-.223-1.178.308-1.37.744l1.934.627zm-2.185.15c-.23.805.274 1.347.988 1.58.513.166.9.202 1.283.196l-.083.81c-.43.04-.994-.012-1.627-.217-1.426-.464-1.98-1.613-1.545-2.958.396-1.22 1.508-2.127 2.917-1.67 1.428.463 1.517 1.79 1.203 2.756-.068.208-.14.365-.19.458l-2.944-.955z" id="Fill-43" fill="#FFF" mask="url(#mask-4)"/><path d="M64.848 61.513c-.796-.218-1.602-.25-1.78.43-.115.44.118.716.476.81.46.12.858-.09 1.052-.384.05-.076.07-.16.092-.242l.16-.615zm.812 1.4c-.105.404-.19.803-.206 1.093l-1.02-.265.047-.518-.027-.007c-.357.28-.89.405-1.478.252-.9-.234-1.235-1.018-1.058-1.698.292-1.122 1.445-1.44 3.096-1l.02-.072c.076-.294.083-.812-.707-1.018-.44-.115-.936-.098-1.29.017l-.03-.792c.385-.117 1.014-.16 1.72.026 1.434.374 1.61 1.392 1.354 2.375l-.42 1.607z" id="Fill-44" fill="#FFF" mask="url(#mask-4)"/><path d="M69.237 58.878l-.25 1.162 1.088.234-.184.855-1.087-.235-.43 1.998c-.12.557-.03.868.406.962.204.044.317.058.455.05l-.167.868c-.182.03-.5.018-.852-.057-.428-.093-.742-.306-.906-.584-.195-.315-.217-.757-.09-1.352l.46-2.128-.642-.137.184-.855.64.138.183-.846 1.192-.074z" id="Fill-45" fill="#FFF" mask="url(#mask-4)"/><path d="M72.394 59.395c-.063.337-.367.57-.77.495a.62.62 0 0 1-.52-.733c.067-.356.38-.577.762-.506.392.074.585.39.528.745zm-2.308 5.592l.848-4.548 1.148.213-.847 4.548-1.15-.213z" id="Fill-46" fill="#FFF" mask="url(#mask-4)"/><path d="M73.106 62.246c.077-.526.124-.97.163-1.368l1.005.148-.045.695.028.005c.26-.327.822-.686 1.583-.573.8.118 1.55.757 1.337 2.204l-.4 2.717-1.157-.17.382-2.586c.097-.658-.074-1.192-.704-1.285-.46-.068-.83.214-1.003.544-.05.088-.09.227-.11.357l-.398 2.7-1.157-.172.476-3.214z" id="Fill-47" fill="#FFF" mask="url(#mask-4)"/><path d="M81.49 63.775a1.09 1.09 0 0 0-.01-.315c-.08-.438-.38-.79-.873-.84-.652-.063-1.19.46-1.28 1.395-.076.785.26 1.457.988 1.528a.997.997 0 0 0 1.015-.62 1.36 1.36 0 0 0 .087-.4l.072-.748zm.96 2.204c-.093.964-.358 1.635-.884 2.024-.514.38-1.198.447-1.832.385-.587-.057-1.198-.25-1.572-.525l.34-.856c.277.2.752.426 1.31.48.756.073 1.363-.27 1.458-1.263l.04-.397-.02-.002c-.304.382-.794.61-1.41.55-1.144-.11-1.866-1.134-1.74-2.44.147-1.514 1.22-2.336 2.327-2.228.71.068 1.083.448 1.264.847l.02.002.106-.61 1.013.096c-.05.31-.106.688-.167 1.322l-.253 2.61z" id="Fill-48" fill="#FFF" mask="url(#mask-4)"/><path d="M85.7 64.355c.018-.437.334-.736.752-.72.427.02.71.334.69.78-.018.428-.316.74-.762.72-.418-.017-.7-.352-.68-.78" id="Fill-49" fill="#FFF" mask="url(#mask-4)"/><path d="M91.385 63.605c.152.046.333.052.57.048.875-.014 1.4-.46 1.39-1.2-.013-.714-.513-1.077-1.32-1.064a3.136 3.136 0 0 0-.675.067l.035 2.148zm-1.208-2.956c.427-.084 1.006-.15 1.785-.163.856-.014 1.477.157 1.89.492.387.307.64.807.65 1.405.01.61-.172 1.107-.517 1.454-.468.473-1.187.712-2.014.726a2.607 2.607 0 0 1-.57-.038l.04 2.424-1.16.018-.103-6.32z" id="Fill-50" fill="#FFF" mask="url(#mask-4)"/><path id="Fill-51" fill="#FFF" mask="url(#mask-4)" d="M95.32 60.09l1.17-.064.367 6.74-1.168.062z"/><path d="M102.256 64.912c.052.55.114 1 .17 1.378l-1.014.096-.122-.685-.028.003c-.168.34-.577.857-1.41.937-.832.08-1.647-.35-1.79-1.854l-.257-2.706 1.164-.11.237 2.506c.073.767.365 1.235.98 1.177a.95.95 0 0 0 .83-.71.808.808 0 0 0 .033-.365l-.265-2.78 1.163-.113.308 3.227z" id="Fill-52" fill="#FFF" mask="url(#mask-4)"/><path d="M103.405 62.938a28.421 28.421 0 0 0-.26-1.353l.984-.162.166.666.028-.006c.156-.39.5-.88 1.277-1.008.6-.1 1.124.16 1.405.634l.018-.002c.118-.28.275-.498.46-.663.232-.22.507-.363.89-.425.75-.124 1.603.265 1.844 1.726l.443 2.69-1.125.184-.414-2.52c-.124-.76-.46-1.165-1.013-1.074-.393.064-.64.393-.706.74-.02.11-.014.263.008.394l.45 2.737-1.124.184-.434-2.64c-.106-.638-.432-1.046-.966-.958-.432.07-.666.456-.728.784-.017.128-.014.26.007.392l.443 2.7-1.124.184-.527-3.204z" id="Fill-53" fill="#FFF" mask="url(#mask-4)"/><path d="M112.84 62.562a1.063 1.063 0 0 0 1.29.81c.71-.17 1.01-.837.788-1.752-.19-.793-.725-1.348-1.482-1.165-.462.11-.807.544-.806 1.073 0 .087.008.194.034.305l.176.73zm-2.27-4.425l1.136-.275.647 2.678.017-.005c.173-.5.593-.905 1.267-1.067 1.1-.266 2.103.458 2.425 1.827.39 1.616-.442 2.666-1.457 2.912-.58.14-1.152.043-1.61-.432l-.017.004.107.686-.97.235c-.054-.31-.157-.813-.268-1.275l-1.277-5.288z" id="Fill-54" fill="#FFF" mask="url(#mask-4)"/><path d="M117.736 63.27l-1.3-4.443 1.12-.328 1.302 4.442-1.122.33zm-.47-6.034c.098.33-.07.675-.46.79-.375.108-.702-.093-.798-.42-.1-.35.077-.688.45-.797.384-.113.7.082.81.426z" id="Fill-55" fill="#FFF" mask="url(#mask-4)"/><path d="M119.204 59.467a28.645 28.645 0 0 0-.492-1.286l.96-.336.282.636.026-.01c.078-.41.41-.988 1.133-1.243.762-.267 1.723-.05 2.207 1.328l.908 2.59-1.1.385-.865-2.462c-.22-.627-.62-1.02-1.22-.81-.44.154-.634.574-.634.946a1.06 1.06 0 0 0 .068.368l.902 2.572-1.102.386-1.074-3.063z" id="Fill-56" fill="#FFF" mask="url(#mask-4)"/><path d="M127.337 56.777a1.128 1.128 0 0 0-.164-.27c-.288-.338-.725-.495-1.175-.292-.597.272-.803.99-.414 1.847.325.718.95 1.133 1.617.83.4-.18.628-.595.573-1.04-.013-.12-.07-.27-.125-.39l-.31-.685zm1.932 1.43c.398.883.503 1.596.242 2.194-.256.587-.816.986-1.395 1.25-.537.242-1.163.38-1.624.328l-.13-.91c.338.034.862-.006 1.372-.237.693-.313 1.047-.91.635-1.82l-.164-.363-.017.008c-.076.48-.385.925-.948 1.18-1.047.474-2.183-.054-2.724-1.248-.627-1.384-.108-2.63.904-3.09.65-.294 1.162-.152 1.52.104l.015-.007-.21-.582.925-.418c.11.293.25.647.514 1.227l1.083 2.387z" id="Fill-57" fill="#FFF" mask="url(#mask-4)"/><path d="M7.004 17.7c.01-.442-.07-1.73-1.357-1.105-1.457.708-2.18 2.737-2.425 4.465-.245 1.73-.034 3.307 1.423 2.6 1.046-.507 1.59-1.643 1.945-2.94l3.054-1.48c-.37 2.594-2.413 6.154-5.37 7.588C1.01 28.412-.428 26.373.11 22.57c.576-4.056 2.965-7.715 6.075-9.224 2.77-1.327 4.033-.21 3.845 2.885L7.004 17.7z" id="Fill-58" fill="#EE3B43" mask="url(#mask-4)"/><path d="M16.13 16.513l-.344-3.526-.03.013-1.537 4.44 1.91-.927zm-1.275-7.086l3.04-1.475 1.852 11.085-3.224 1.564-.163-1.63-3.21 1.556-.713 2.057L9.31 24.1l5.545-14.673z" id="Fill-59" fill="#EE3B43" mask="url(#mask-4)"/><path id="Fill-60" fill="#EE3B43" mask="url(#mask-4)" d="M22.265 5.832l3.11-1.51-1.355 9.57 4.47-2.167-.47 3.298-7.58 3.677z"/><path id="Fill-61" fill="#EE3B43" mask="url(#mask-4)" d="M31.175 1.51L34.285 0 32.93 9.57l4.47-2.167-.47 3.298-7.58 3.678z"/></g></svg>